<svg width="70" height="70" viewBox="0 0 70 70" fill="none" xmlns="http://www.w3.org/2000/svg">
<path d="M29.1574 3.36714L30.3094 5.17336C34.5229 2.51927 39.8741 2.51927 44.0876 5.17336L45.2396 3.36714C40.3384 0.210952 34.0587 0.210952 29.1574 3.36714Z" fill="#4B5959"/>
<path d="M24.4001 16.5889H22.2667C22.2637 18.5733 22.6546 20.5384 23.4166 22.369L25.3857 21.541C24.7324 19.9729 24.3973 18.2892 24.4001 16.5889Z" fill="#4B5959"/>
<path d="M42.1196 28.4698C40.5619 29.1265 38.8892 29.463 37.2001 29.4598V31.605C39.1725 31.6087 41.1259 31.216 42.9452 30.4498L42.1196 28.4698Z" fill="#4B5959"/>
<path d="M50.0002 16.5889C50.0031 18.288 49.6683 19.9706 49.0156 21.5378L50.9847 22.3658C51.7466 20.5364 52.1371 18.5722 52.1335 16.5889H50.0002Z" fill="#4B5959"/>
<path d="M37.2001 5.86311C31.309 5.86311 26.5334 10.6652 26.5334 16.5889C26.5334 22.5126 31.309 27.3147 37.2001 27.3147C43.0886 27.3081 47.8604 22.5099 47.8668 16.5889C47.8668 10.6653 43.0912 5.86311 37.2001 5.86311ZM37.2001 25.1695C32.4873 25.1695 28.6668 21.3278 28.6668 16.5889C28.6668 11.85 32.4873 8.00827 37.2001 8.00827C41.9129 8.00827 45.7335 11.85 45.7335 16.5889C45.7282 21.3257 41.9108 25.1643 37.2001 25.1695Z" fill="#4B5959"/>
<path d="M65.6877 45.8627L62.1752 42.3307L65.6877 38.7987C66.1041 38.3799 66.1041 37.7009 65.6877 37.2821L51.821 23.3386C51.4045 22.9199 50.7292 22.9199 50.3127 23.3386L36.6668 37.0601L21.9542 22.266C21.5377 21.8473 20.8625 21.8473 20.4459 22.266L6.57922 36.2095C6.16282 36.6284 6.16282 37.3073 6.57922 37.7262L14.3584 45.5485H2V47.6936H15.8667C16.0113 47.694 16.1543 47.6644 16.287 47.6067L23.5521 44.4759H39.3335V48.7662H27.6001C27.011 48.7662 26.5334 49.2463 26.5334 49.8388C26.5334 50.2572 26.7754 50.6374 27.1532 50.8127L41.0199 57.2481C41.3688 57.4077 41.776 57.3668 42.0865 57.1409L60.5602 43.7358L63.3688 46.5599L42.1388 64.8548H36.3244L16.2358 57.4133C16.1177 57.3695 15.9927 57.3469 15.8667 57.3468H2V59.492H15.6758L35.7644 66.9335C35.8825 66.9775 36.0075 66.9999 36.1335 67H42.5335C42.788 67.0003 43.034 66.9086 43.2268 66.7415L65.6269 47.4351C66.0742 47.0497 66.1262 46.3726 65.7429 45.9228C65.7253 45.9021 65.7069 45.882 65.6877 45.8627ZM23.3334 42.3307C23.1889 42.3303 23.0458 42.3598 22.9131 42.4176L22.6539 42.5249C23.7071 39.7767 26.7766 38.4072 29.5097 39.4663C30.8401 39.9818 31.908 41.0143 32.4726 42.3307H23.3334ZM34.7521 42.3307C33.8183 39.1436 30.9044 36.9587 27.6001 36.9678C23.8254 36.9906 20.6534 39.8255 20.1878 43.5921L16.8566 45.0272L8.84162 36.9678L21.2001 24.541L38.8919 42.3307H34.7521ZM41.3484 55.0375L32.4566 50.9113H40.4001C40.9892 50.9113 41.4668 50.4311 41.4668 49.8388V44.9199L47.2588 50.744L41.3484 55.0375ZM41.5671 41.9875C41.9711 39.698 43.9543 38.0322 46.2668 38.0404C48.9119 38.0356 51.06 40.1877 51.065 42.8474C51.0692 45.1747 49.4178 47.1719 47.1415 47.5928L41.5671 41.9875ZM48.8727 49.3314C49.3007 49.1569 49.7098 48.9391 50.0947 48.6827L49.0103 49.4698L48.8727 49.3314ZM59.9746 41.5102L50.5751 48.3372C53.5697 45.9375 54.0627 41.5511 51.6762 38.54C49.2898 35.5288 44.9275 35.033 41.9329 37.4328C41.0061 38.1754 40.2841 39.1446 39.8357 40.2478L38.1749 38.5767L51.0667 25.6135L63.4252 38.0404L59.9746 41.5102Z" fill="#4B5959"/>
<path d="M38.483 20.1532H36.3546V21.6847H34.6889V20.1532H33.3338V18.8073H34.6889V18.0979H33.3338V16.752H34.6889V12.0315H38.3706C39.4326 12.0315 40.2808 12.31 40.9154 12.8669C41.5499 13.4194 41.8672 14.1553 41.8672 15.0746C41.8672 16.0117 41.5654 16.7476 40.9617 17.2824C40.358 17.8128 39.5185 18.0846 38.4433 18.0979H36.3546V18.8073H38.483V20.1532ZM36.3546 16.752H38.3441C38.9434 16.752 39.4017 16.6128 39.719 16.3343C40.0363 16.0559 40.1949 15.6404 40.1949 15.0879C40.1949 14.5929 40.0385 14.1884 39.7256 13.8746C39.4171 13.5608 38.9897 13.3973 38.4433 13.384H36.3546V16.752Z" fill="#4B5959"/>
<rect x="2.01367" y="66.8311" width="90.0269" height="3.06741" transform="rotate(-45 2.01367 66.8311)" fill="#00C698"/>
</svg>
