<svg width="70" height="70" viewBox="0 0 70 70" fill="none" xmlns="http://www.w3.org/2000/svg">
<path d="M66.4998 66.3438H63.5665V24.0478C63.5665 22.0791 61.9535 20.4775 59.9712 20.4775H53.4147C51.4323 20.4775 49.8195 22.0793 49.8195 24.0478V66.3438H42.3712V43.2112C42.3712 41.2425 40.7585 39.6409 38.776 39.6409H32.2195C30.2371 39.6409 28.6243 41.2426 28.6243 43.2112V66.3438H21.176V54.3636C21.176 52.3949 19.5631 50.7933 17.5808 50.7933H11.0242C9.04173 50.7933 7.42895 52.395 7.42895 54.3636V66.3438H4.33741C3.59876 66.3438 3 66.9384 3 67.6719C3 68.4054 3.59876 69 4.33741 69H66.4998C67.2384 69 67.8372 68.4054 67.8372 67.6719C67.8372 66.9384 67.2384 66.3438 66.4998 66.3438ZM18.5009 66.3438H10.1036V54.3636C10.1036 53.8596 10.5165 53.4496 11.024 53.4496H17.5805C18.0881 53.4496 18.5009 53.8596 18.5009 54.3636V66.3438ZM39.6963 66.3438H31.299V43.2112C31.299 42.7072 31.7118 42.2972 32.2194 42.2972H38.7759C39.2833 42.2972 39.6963 42.7072 39.6963 43.2112V66.3438ZM60.8916 66.3438H52.4943V24.0478C52.4943 23.5438 52.9072 23.1338 53.4147 23.1338H59.9712C60.4788 23.1338 60.8916 23.5438 60.8916 24.0478V66.3438Z" fill="#4B5959"/>
<path d="M63.5631 2.39666C63.5819 2.03421 63.4535 1.66566 63.1748 1.38887C62.896 1.11209 62.5249 0.984461 62.1599 1.00319C62.1384 1.00226 62.1171 1 62.0952 1H54.0039C53.2653 1 52.6665 1.5946 52.6665 2.32812C52.6665 3.06165 53.2653 3.65625 54.0039 3.65625H59L45.7788 16.7858L40.793 11.8346C40.5422 11.5856 40.202 11.4456 39.8473 11.4456C39.4926 11.4456 39.1524 11.5856 38.9016 11.8346L6.95224 43.6172C6.42998 44.1359 6.42998 44.9769 6.95224 45.4956C7.21344 45.7547 7.55568 45.8844 7.89792 45.8844C8.24016 45.8844 8.58254 45.7547 8.8436 45.4954L39.8473 14.6518L44.8332 19.603C45.3554 20.1217 46.2023 20.1217 46.7247 19.603L60.8915 5.53462V10.025C60.8915 10.7585 61.4903 11.3531 62.229 11.3531C62.9676 11.3531 63.5664 10.7585 63.5664 10.025V2.46094C63.5664 2.43929 63.5641 2.41817 63.5631 2.39666Z" fill="#00C698"/>
</svg>
