<svg width="28" height="20" viewBox="0 0 28 20" fill="none" xmlns="http://www.w3.org/2000/svg">
<path d="M21.9555 18.111H6.05043V20H21.9555V18.111Z" fill="black"/>
<path d="M8.85073 10.8069L6.37813 9.3308L7.65315 5.91595L10.1615 8.6162L8.85073 10.8069Z" fill="black"/>
<path d="M19.1552 10.8069L21.6249 9.3308L20.3498 5.91595L17.8445 8.6162L19.1552 10.8069Z" fill="black"/>
<path d="M14.0015 3.23913C14.9113 3.23913 15.6489 2.51402 15.6489 1.61956C15.6489 0.725103 14.9113 0 14.0015 0C13.0917 0 12.3541 0.725103 12.3541 1.61956C12.3541 2.51402 13.0917 3.23913 14.0015 3.23913Z" fill="black"/>
<path d="M20.6924 5.61429C21.3028 5.61429 21.7976 5.12783 21.7976 4.52775C21.7976 3.92767 21.3028 3.44121 20.6924 3.44121C20.082 3.44121 19.5872 3.92767 19.5872 4.52775C19.5872 5.12783 20.082 5.61429 20.6924 5.61429Z" fill="black"/>
<path d="M26.8948 7.38908C27.5052 7.38908 28 6.90261 28 6.30253C28 5.70245 27.5052 5.21599 26.8948 5.21599C26.2844 5.21599 25.7896 5.70245 25.7896 6.30253C25.7896 6.90261 26.2844 7.38908 26.8948 7.38908Z" fill="black"/>
<path d="M7.31057 5.61429C7.92096 5.61429 8.41579 5.12783 8.41579 4.52775C8.41579 3.92767 7.92096 3.44121 7.31057 3.44121C6.70017 3.44121 6.20534 3.92767 6.20534 4.52775C6.20534 5.12783 6.70017 5.61429 7.31057 5.61429Z" fill="black"/>
<path d="M1.10522 7.38908C1.71562 7.38908 2.21045 6.90261 2.21045 6.30253C2.21045 5.70245 1.71562 5.21599 1.10522 5.21599C0.494826 5.21599 0 5.70245 0 6.30253C0 6.90261 0.494826 7.38908 1.10522 7.38908Z" fill="black"/>
<path d="M18.7382 11.911L13.9985 3.655L9.26184 11.911L1.92446 7.6058L6.04447 17.4784H21.9555L26.0726 7.6058L18.7382 11.911Z" fill="black"/>
</svg>
