<svg width="32" height="32" viewBox="0 0 32 32" fill="none" xmlns="http://www.w3.org/2000/svg">
<path d="M8.65386 9.52518C8.10158 9.52518 7.65386 9.9729 7.65386 10.5252C7.65386 11.0775 8.10158 11.5252 8.65386 11.5252V9.52518ZM17.2873 11.5252C17.8395 11.5252 18.2873 11.0775 18.2873 10.5252C18.2873 9.9729 17.8395 9.52518 17.2873 9.52518V11.5252ZM5.97656 4.9585H21.9824V2.9585H5.97656V4.9585ZM21.9824 27.0239H5.97656V29.0239H21.9824V27.0239ZM2.97656 24.0239V7.9585H0.976562V24.0239H2.97656ZM24.9824 7.9585V11.9594H26.9824V7.9585H24.9824ZM24.9824 20.0908V24.0239H26.9824V20.0908H24.9824ZM5.97656 27.0239C4.31971 27.0239 2.97656 25.6808 2.97656 24.0239H0.976562C0.976562 26.7853 3.21514 29.0239 5.97656 29.0239V27.0239ZM21.9824 29.0239C24.7438 29.0239 26.9824 26.7853 26.9824 24.0239H24.9824C24.9824 25.6808 23.6393 27.0239 21.9824 27.0239V29.0239ZM21.9824 4.9585C23.6393 4.9585 24.9824 6.30164 24.9824 7.9585H26.9824C26.9824 5.19707 24.7438 2.9585 21.9824 2.9585V4.9585ZM5.97656 2.9585C3.21514 2.9585 0.976562 5.19707 0.976562 7.9585H2.97656C2.97656 6.30164 4.31971 4.9585 5.97656 4.9585V2.9585ZM8.65386 11.5252H17.2873V9.52518H8.65386V11.5252ZM26.0411 18.9911C24.3843 18.9911 23.0411 17.6479 23.0411 15.9911H21.0411C21.0411 18.7525 23.2797 20.9911 26.0411 20.9911V18.9911ZM29.0411 15.9911C29.0411 17.6479 27.698 18.9911 26.0411 18.9911V20.9911C28.8026 20.9911 31.0411 18.7525 31.0411 15.9911H29.0411ZM26.0411 12.9911C27.698 12.9911 29.0411 14.3342 29.0411 15.9911H31.0411C31.0411 13.2296 28.8026 10.9911 26.0411 10.9911V12.9911ZM26.0411 10.9911C23.2797 10.9911 21.0411 13.2296 21.0411 15.9911H23.0411C23.0411 14.3342 24.3843 12.9911 26.0411 12.9911V10.9911Z" fill="black"/>
</svg>
